<svg width="512" height="512" viewBox="0 0 512 512" fill="none" xmlns="http://www.w3.org/2000/svg">
<path d="M42.7656 378.925L205.113 502.042C211.852 508.437 220.746 512 230 512C239.254 512 248.148 508.437 254.887 502.042L417.234 378.925C444.547 353.072 460 316.803 460 278.891V273.592C460 209.735 414.629 155.287 352.727 144.781C311.758 137.838 270.07 151.45 240.781 181.232L230 192.194L219.219 181.232C189.93 151.45 148.242 137.838 107.273 144.781C45.3711 155.287 0 209.735 0 273.592V278.891C0 316.803 15.4531 353.072 42.7656 378.925Z" fill="#EE596B"/>
<path d="M14 235.5L51.5 179L114 154.5H142C142 154.5 87.5458 190.93 74.5 227.5C60.1184 267.815 73.0675 295.697 86 336.5C111.27 416.228 225.5 499 225.5 499L34 358L14 293.5V235.5Z" fill="#ED3A4F"/>
<path d="M211.156 494.074C211.449 494.297 211.73 494.535 211.997 494.789C216.889 499.431 223.323 502 230 502C236.677 502 243.111 499.431 248.003 494.789C248.27 494.535 248.551 494.297 248.844 494.074L410.748 371.294C435.795 347.38 450 313.915 450 278.891V273.592C450 214.493 408.031 164.311 351.056 154.64L211.156 494.074ZM211.156 494.074L49.2517 371.294M211.156 494.074L49.2517 371.294M230 202.194C227.319 202.194 224.75 201.118 222.87 199.206L212.089 188.243C185.07 160.77 146.661 148.249 108.947 154.64L230 202.194ZM230 202.194C232.681 202.194 235.25 201.118 237.13 199.206M230 202.194L237.13 199.206M237.13 199.206L247.911 188.243C274.93 160.77 313.339 148.249 351.053 154.64L237.13 199.206ZM49.2517 371.294C24.2048 347.38 10 313.915 10 278.891V273.592C10 214.493 51.9687 164.311 108.944 154.64L49.2517 371.294Z" stroke="black" stroke-width="20" stroke-linejoin="round"/>
<path d="M145.587 380.956L155.932 403.481C158.481 409.03 162.901 413.505 168.418 416.122L191.28 426.965C198.9 430.578 198.9 441.422 191.28 445.035L168.418 455.878C162.901 458.495 158.481 462.97 155.932 468.519L145.587 491.044C142.02 498.812 130.98 498.812 127.413 491.044L117.068 468.519C114.519 462.97 110.099 458.495 104.582 455.878L81.72 445.035C74.1003 441.422 74.1003 430.578 81.72 426.965L104.582 416.122C110.099 413.505 114.519 409.03 117.068 403.481L127.413 380.956C130.98 373.187 142.02 373.188 145.587 380.956Z" fill="#FFC700" stroke="black" stroke-width="16" stroke-linejoin="round"/>
<path d="M401.765 206.915C402.012 207.114 402.247 207.327 402.468 207.554C404.083 209.206 406.072 210 408 210C409.928 210 411.917 209.206 413.532 207.554C413.753 207.327 413.988 207.114 414.235 206.915L487.265 148.089C497.872 137.084 504 121.595 504 105.247V102.664C504 74.8693 485.749 52.0731 462.054 47.7374C446.391 44.8764 430.275 50.4341 418.785 63.0293L413.91 68.3736C412.395 70.0353 410.249 70.9822 408 70.9822C405.751 70.9822 403.605 70.0353 402.09 68.3736L397.215 63.0293C385.725 50.4341 369.609 44.8764 353.946 47.7374L401.765 206.915ZM401.765 206.915L328.735 148.089M401.765 206.915L328.735 148.089M328.735 148.089C318.128 137.084 312 121.595 312 105.247V102.664C312 74.87 330.25 52.0744 353.944 47.7378L328.735 148.089Z" fill="#EE596B" stroke="black" stroke-width="16" stroke-linecap="round" stroke-linejoin="round"/>
<path d="M312.5 89.5L328.591 58.5L353.5 51.5L387.5 54.5C387.5 54.5 358.393 67.0413 350.038 83.566C341.239 100.968 345.605 114.51 350.038 133.5C358.646 170.377 411.5 208.5 411.5 208.5L328.591 151L316 119.5L312.5 89.5Z" fill="#ED3A4F"/>
<path d="M401.765 206.915C402.012 207.114 402.247 207.327 402.468 207.554C404.083 209.206 406.072 210 408 210C409.928 210 411.917 209.206 413.532 207.554C413.753 207.327 413.988 207.114 414.235 206.915L487.265 148.089C497.872 137.084 504 121.595 504 105.247V102.664C504 74.8693 485.749 52.0731 462.054 47.7374C446.391 44.8764 430.275 50.4341 418.785 63.0293L413.91 68.3736C412.395 70.0353 410.249 70.9822 408 70.9822C405.751 70.9822 403.605 70.0353 402.09 68.3736L397.215 63.0293C385.725 50.4341 369.609 44.8764 353.946 47.7374L401.765 206.915ZM401.765 206.915L328.735 148.089M401.765 206.915L328.735 148.089M328.735 148.089C318.128 137.084 312 121.595 312 105.247V102.664C312 74.87 330.25 52.0744 353.944 47.7378L328.735 148.089Z" stroke="black" stroke-width="16" stroke-linecap="round" stroke-linejoin="round"/>
<path d="M148.063 93.7507L190.062 126.436C191.805 128.083 194.106 129 196.5 129C198.894 129 201.195 128.083 202.938 126.436L244.937 93.7507C252.002 87.0934 256 77.7544 256 67.9919V66.6275C256 50.1841 244.263 36.1638 228.249 33.4585C217.65 31.6707 206.866 35.1758 199.289 42.8446L196.5 45.6675L193.711 42.8446C186.134 35.1758 175.35 31.6707 164.751 33.4585C148.737 36.1638 137 50.1841 137 66.6275V67.9919C137 77.7544 140.998 87.0934 148.063 93.7507Z" fill="#EE596B"/>
<path d="M143 61.1529L150.802 46.3439L162.879 43L179.364 44.4331C179.364 44.4331 164.718 50.1119 161.2 58.3182C157.607 66.6994 161.156 72.836 164 81.5C169.529 98.3428 193.5 116 193.5 116L150.802 90.5318L144.697 75.4841L143 61.1529Z" fill="#ED3A4F"/>
<path d="M193.44 122.095C193.578 122.203 193.711 122.317 193.839 122.438C194.565 123.123 195.516 123.5 196.5 123.5C197.484 123.5 198.435 123.123 199.161 122.438C199.289 122.317 199.422 122.203 199.56 122.095L241.345 89.5766C247.183 83.9819 250.5 76.1729 250.5 67.9919V66.6275C250.5 52.8211 240.654 41.1327 227.334 38.8819L193.44 122.095ZM193.44 122.095L151.655 89.5766M193.44 122.095L151.655 89.5766M196.5 51.1675C195.03 51.1675 193.621 50.5789 192.588 49.5331L189.798 46.7102C183.472 40.3074 174.486 37.3944 165.667 38.8817L196.5 51.1675ZM196.5 51.1675C197.97 51.1675 199.379 50.5789 200.412 49.5331M196.5 51.1675L200.412 49.5331M200.412 49.5331L203.202 46.7102C209.528 40.3074 218.514 37.3944 227.333 38.8817L200.412 49.5331ZM151.655 89.5766C145.817 83.9819 142.5 76.1729 142.5 67.9919V66.6275C142.5 52.8211 152.346 41.1327 165.666 38.8819L151.655 89.5766Z" stroke="black" stroke-width="11" stroke-linecap="round" stroke-linejoin="round"/>
<path d="M146.376 348C141.616 348 137.906 347.44 135.246 346.32C132.726 345.2 130.976 343.94 129.996 342.54C129.016 341.14 128.456 339.88 128.316 338.76C128.176 337.64 128.106 337.08 128.106 337.08C128.106 337.08 127.756 335.19 127.056 331.41C126.496 327.49 125.726 322.45 124.746 316.29C123.766 310.13 122.646 303.48 121.386 296.34C120.266 289.06 119.146 282.06 118.026 275.34C117.046 268.48 116.136 262.53 115.296 257.49C114.456 252.31 113.826 248.81 113.406 246.99C112.846 244.19 112.986 241.95 113.826 240.27C114.806 238.45 115.996 237.12 117.396 236.28C118.936 235.3 120.266 234.67 121.386 234.39C122.646 233.97 123.276 233.76 123.276 233.76C123.276 233.76 125.026 233.48 128.526 232.92C132.166 232.22 136.646 231.38 141.966 230.4C147.286 229.42 152.746 228.51 158.346 227.67C163.946 226.69 168.846 225.92 173.046 225.36C177.246 224.8 180.536 225.01 182.916 225.99C185.296 226.83 187.046 227.95 188.166 229.35C189.286 230.75 189.986 232.08 190.266 233.34C190.546 234.46 190.686 235.02 190.686 235.02C190.686 235.02 190.826 236.14 191.106 238.38C191.526 240.62 191.946 243.28 192.366 246.36C192.786 249.3 193.066 252.1 193.206 254.76C193.486 258.68 192.576 261.9 190.476 264.42C188.376 266.94 183.826 268.55 176.826 269.25C172.206 269.67 168.916 269.18 166.956 267.78C164.996 266.38 163.806 264.91 163.386 263.37C163.106 261.83 162.966 261.06 162.966 261.06L161.706 247.2L148.476 248.46L155.826 284.58C155.826 284.58 156.736 284.58 158.556 284.58C160.376 284.58 162.476 284.79 164.856 285.21C167.236 285.49 169.406 286.19 171.366 287.31C173.326 288.43 174.516 290.18 174.936 292.56C175.356 294.8 174.726 296.62 173.046 298.02C171.506 299.42 169.616 300.4 167.376 300.96C165.276 301.52 163.316 301.94 161.496 302.22C159.816 302.36 158.976 302.43 158.976 302.43C158.976 302.43 159.396 305.44 160.236 311.46C161.076 317.34 161.986 324.62 162.966 333.3C163.526 337.64 162.966 340.86 161.286 342.96C159.746 345.06 157.786 346.46 155.406 347.16C153.166 347.86 151.066 348.14 149.106 348C147.286 348 146.376 348 146.376 348ZM211.726 339.692C211.726 339.609 211.395 339.113 210.734 338.204C210.155 337.212 209.452 335.6 208.626 333.368C207.799 331.053 207.014 327.871 206.27 323.82C205.526 319.687 204.947 314.479 204.534 308.196C204.368 304.889 204.823 302.533 205.898 301.128C207.055 299.723 208.502 298.855 210.238 298.524C211.974 298.111 213.627 297.904 215.198 297.904C215.198 297.904 215.652 297.904 216.562 297.904C217.554 297.821 218.67 297.904 219.91 298.152C221.15 298.317 222.224 298.855 223.134 299.764C224.126 300.591 224.663 301.913 224.746 303.732C224.828 305.22 224.911 307.245 224.994 309.808C225.076 312.371 225.2 315.14 225.366 318.116C225.614 321.009 225.986 323.82 226.482 326.548C226.978 329.276 227.598 331.549 228.342 333.368C229.168 335.104 230.202 336.055 231.442 336.22C232.682 336.385 233.508 335.683 233.922 334.112C234.335 332.459 234.459 330.392 234.294 327.912C234.211 325.432 233.963 322.952 233.55 320.472C233.219 317.909 232.888 315.76 232.558 314.024C232.227 312.288 232.062 311.42 232.062 311.42C232.062 311.42 231.896 310.924 231.566 309.932C231.235 308.857 231.111 307.659 231.194 306.336C231.276 305.013 231.855 303.815 232.93 302.74C234.004 301.665 235.906 301.087 238.634 301.004C242.354 300.839 245.123 301.211 246.942 302.12C248.843 303.029 250.124 304.187 250.786 305.592C251.53 306.997 251.984 308.444 252.15 309.932C252.315 310.759 252.604 312.743 253.018 315.884C253.514 318.943 254.051 322.58 254.63 326.796C255.208 330.929 255.663 335.228 255.994 339.692C256.324 344.073 256.448 348.083 256.366 351.72C256.283 355.357 255.787 358.127 254.878 360.028C253.472 363.087 251.53 365.897 249.05 368.46C246.652 371.105 243.428 373.131 239.378 374.536C235.41 376.024 230.326 376.603 224.126 376.272C219.496 376.024 215.776 375.28 212.966 374.04C210.155 372.883 208.047 371.601 206.642 370.196C205.236 368.873 204.286 367.675 203.79 366.6C203.376 365.608 203.17 365.112 203.17 365.112C203.17 365.112 203.004 364.657 202.674 363.748C202.426 362.839 202.384 361.764 202.55 360.524C202.798 359.367 203.583 358.333 204.906 357.424C206.228 356.597 208.543 356.225 211.85 356.308C215.156 356.391 217.554 356.68 219.042 357.176C220.53 357.755 221.48 358.375 221.894 359.036C222.307 359.697 222.431 360.276 222.266 360.772C222.183 361.268 222.142 361.516 222.142 361.516C222.142 361.516 222.142 361.971 222.142 362.88C222.142 363.789 222.431 364.657 223.01 365.484C223.671 366.311 224.828 366.683 226.482 366.6C228.218 366.435 230.078 365.649 232.062 364.244C234.046 362.921 235.534 360.896 236.526 358.168C237.6 355.44 237.518 352.051 236.278 348C236.278 348 235.492 348.124 233.922 348.372C232.351 348.62 230.284 348.62 227.722 348.372C225.242 348.207 222.555 347.504 219.662 346.264C216.851 344.941 214.206 342.751 211.726 339.692ZM263.789 240.9C263.789 240.9 263.789 240.2 263.789 238.8C263.789 237.4 264.139 235.72 264.839 233.76C265.539 231.8 267.009 230.05 269.249 228.51C271.489 226.83 274.849 225.85 279.329 225.57C283.809 225.29 287.309 225.64 289.829 226.62C292.489 227.6 294.379 228.86 295.499 230.4C296.759 231.8 297.529 233.13 297.809 234.39C298.229 235.51 298.439 236.07 298.439 236.07L307.889 307.05L315.449 250.77C315.449 250.77 315.589 250.07 315.869 248.67C316.149 247.13 316.849 245.52 317.969 243.84C319.229 242.02 321.049 240.55 323.429 239.43C325.809 238.17 329.099 237.89 333.299 238.59C337.499 239.15 340.509 240.34 342.329 242.16C344.149 243.84 345.269 245.66 345.689 247.62C346.109 249.44 346.179 251.05 345.899 252.45C345.619 253.85 345.479 254.55 345.479 254.55C345.479 254.55 345.059 256.51 344.219 260.43C343.379 264.21 342.259 269.11 340.859 275.13C339.599 281.15 338.199 287.59 336.659 294.45C335.119 301.17 333.649 307.61 332.249 313.77C330.849 319.79 329.729 324.76 328.889 328.68C328.049 332.6 327.559 334.63 327.419 334.77C327.279 334.91 326.929 335.68 326.369 337.08C325.949 338.34 325.109 339.88 323.849 341.7C322.589 343.38 320.629 344.85 317.969 346.11C315.449 347.37 312.089 348 307.889 348C302.289 348 298.089 347.09 295.289 345.27C292.489 343.31 290.669 341.42 289.829 339.6C288.989 337.78 288.569 336.87 288.569 336.87L263.789 240.9Z" fill="white"/>
</svg>
