<svg width="512" height="512" viewBox="0 0 512 512" fill="none" xmlns="http://www.w3.org/2000/svg">
<path d="M58.9712 134.857L81.4743 152.322C82.4083 153.175 83.6412 153.65 84.9239 153.65C86.2066 153.65 87.4395 153.175 88.3735 152.322L110.877 134.857C114.662 131.41 116.804 126.574 116.804 121.519V120.812C116.804 112.298 110.515 105.038 101.935 103.637C96.2564 102.712 90.4781 104.527 86.4183 108.498L84.9239 109.959L83.4295 108.498C79.3697 104.527 73.5914 102.712 67.9127 103.637C59.3324 105.038 53.0435 112.298 53.0435 120.812V121.519C53.0435 126.574 55.1854 131.41 58.9712 134.857Z" fill="#EE596B"/>
<path d="M52.1304 114.875L57.837 106.4L67.3478 102.725H71.6087C71.6087 102.725 63.3222 108.189 61.337 113.675C59.1485 119.722 61.119 123.905 63.087 130.025C66.9323 141.984 84.3152 154.4 84.3152 154.4L55.1739 133.25L52.1304 123.575V114.875Z" fill="#ED3A4F"/>
<path fill-rule="evenodd" clip-rule="evenodd" d="M81.2129 153.543L56.5078 135.526C52.3516 131.742 50 126.435 50 120.886V120.111C50 110.766 56.9043 102.798 66.3242 101.261C72.5586 100.245 78.9023 102.237 83.3594 106.595L85 108.199L86.6406 106.595C91.0977 102.237 97.4414 100.245 103.676 101.261C113.096 102.798 120 110.766 120 120.111V120.886C120 126.435 117.648 131.742 113.492 135.526L88.7871 153.543C87.7617 154.479 86.4082 155 85 155C83.5918 155 82.2383 154.479 81.2129 153.543ZM81.4743 151.272L58.9712 134.857C55.1854 131.41 53.0435 126.574 53.0435 121.519V120.812C53.0435 112.298 59.3324 105.038 67.9127 103.637C73.5914 102.712 79.3697 106.027 83.4295 109.998L84.9239 111.459L86.4183 109.998C90.4781 106.027 96.2564 102.712 101.935 103.637C110.515 105.038 116.804 112.298 116.804 120.812V121.519C116.804 126.574 114.662 131.41 110.877 134.857L88.3735 151.272C87.4395 152.125 86.2066 152.6 84.9239 152.6C83.6412 152.6 82.4083 152.125 81.4743 151.272Z" fill="black"/>
<path d="M58.9539 377.711L206.831 494.149C212.969 499.833 221.071 503 229.5 503C237.929 503 246.031 499.833 252.169 494.149L400.046 377.711C424.924 354.73 439 322.492 439 288.792V284.082C439 227.32 397.673 178.921 341.288 169.583C303.971 163.411 265.999 175.511 239.32 201.984L229.5 211.728L219.68 201.984C193.001 175.511 155.029 163.411 117.712 169.583C61.3271 178.921 20 227.32 20 284.082V288.792C20 322.492 34.0758 354.73 58.9539 377.711Z" fill="#EE596B"/>
<path d="M14 244.5L51.5 188L114 163.5H142C142 163.5 87.5458 199.93 74.5 236.5C60.1184 276.815 73.0675 304.697 86 345.5C111.27 425.228 225.5 508 225.5 508L34 367L14 302.5V244.5Z" fill="#ED3A4F"/>
<path fill-rule="evenodd" clip-rule="evenodd" d="M205.113 502.285L42.7656 382.171C15.4531 356.948 0 321.564 0 284.576V279.407C0 217.107 45.3711 163.987 107.273 153.737C148.242 146.963 189.93 160.243 219.219 189.299L230 199.994L240.781 189.299C270.07 160.243 311.758 146.963 352.727 153.737C414.629 163.987 460 217.107 460 279.407V284.576C460 321.564 444.547 356.948 417.234 382.171L254.887 502.285C248.148 508.524 239.254 512 230 512C220.746 512 211.852 508.524 205.113 502.285ZM206.831 487.149L58.9539 377.711C34.0758 354.73 20 322.492 20 288.792V284.082C20 227.32 61.3271 178.921 117.712 169.583C155.029 163.411 193.001 185.511 219.68 211.984L229.5 221.728L239.32 211.984C265.999 185.511 303.971 163.411 341.288 169.583C397.673 178.921 439 227.32 439 284.082V288.792C439 322.492 424.924 354.73 400.046 377.711L252.169 487.149C246.031 492.833 237.929 496 229.5 496C221.071 496 212.969 492.833 206.831 487.149Z" fill="black"/>
<path d="M113.587 387.956L123.932 410.481C126.481 416.03 130.901 420.505 136.418 423.122L159.28 433.965C166.9 437.578 166.9 448.422 159.28 452.035L136.418 462.878C130.901 465.495 126.481 469.97 123.932 475.519L113.587 498.044C110.02 505.812 98.9803 505.812 95.4125 498.044L85.0679 475.519C82.5194 469.97 78.0992 465.495 72.5819 462.878L49.72 452.035C42.1003 448.422 42.1003 437.578 49.72 433.965L72.5819 423.122C78.0992 420.505 82.5194 416.03 85.0679 410.481L95.4125 387.956C98.9803 380.187 110.02 380.188 113.587 387.956Z" fill="#FFC700" stroke="black" stroke-width="16" stroke-linejoin="round"/>
<path d="M317.58 148.094L389.268 204.372C392.244 207.119 396.171 208.65 400.258 208.65C404.344 208.65 408.271 207.119 411.247 204.372L482.935 148.094C494.996 136.986 501.82 121.404 501.82 105.116V102.84C501.82 75.4045 481.785 52.012 454.45 47.4983C436.36 44.5154 417.952 50.3635 405.018 63.1587L400.258 67.8686L395.497 63.1587C382.564 50.3635 364.156 44.5154 346.065 47.4983C318.73 52.012 298.696 75.4045 298.696 102.84V105.116C298.696 121.404 305.519 136.986 317.58 148.094Z" fill="#EE596B"/>
<path d="M295.787 83.7083L313.966 56.4L344.265 44.5583H357.839C357.839 44.5583 331.441 62.1659 325.116 79.8417C318.144 99.3273 324.422 112.804 330.691 132.525C342.942 171.06 398.318 211.067 398.318 211.067L305.483 142.917L295.787 111.742V83.7083Z" fill="#ED3A4F"/>
<path fill-rule="evenodd" clip-rule="evenodd" d="M388.435 208.304L309.732 150.249C296.491 138.058 289 120.956 289 103.079V100.58C289 70.4683 310.995 44.7936 341.004 39.8396C360.865 36.5657 381.075 42.9844 395.273 57.0279L400.5 62.1973L405.727 57.0279C419.925 42.9844 440.135 36.5657 459.996 39.8396C490.005 44.7936 512 70.4683 512 100.58V103.079C512 120.956 504.509 138.058 491.268 150.249L412.565 208.304C409.298 211.32 404.986 213 400.5 213C396.014 213 391.702 211.32 388.435 208.304ZM389.268 200.989L317.58 148.094C305.519 136.986 298.696 121.404 298.696 105.116V102.84C298.696 75.4045 318.73 52.012 346.065 47.4983C364.156 44.5154 382.564 55.1969 395.497 67.9921L400.258 72.702L405.018 67.9921C417.952 55.1969 436.36 44.5154 454.45 47.4983C481.785 52.012 501.82 75.4045 501.82 102.84V105.116C501.82 121.404 494.996 136.986 482.935 148.094L411.247 200.989C408.271 203.736 404.344 205.267 400.258 205.267C396.171 205.267 392.244 203.736 389.268 200.989Z" fill="black"/>
<path d="M156.533 114.698L198.003 147.041C199.724 148.62 201.996 149.5 204.36 149.5C206.724 149.5 208.996 148.62 210.717 147.041L252.187 114.698C259.164 108.314 263.111 99.3588 263.111 89.9977V88.6894C263.111 72.9221 251.521 59.4782 235.709 56.8841C225.244 55.1698 214.595 58.5308 207.114 65.8843L204.36 68.5912L201.606 65.8843C194.124 58.5308 183.476 55.1698 173.011 56.8841C157.198 59.4782 145.609 72.9221 145.609 88.6894V89.9977C145.609 99.3588 149.556 108.314 156.533 114.698Z" fill="#EE596B"/>
<path d="M143.926 77.6944L154.442 62L171.97 55.1944H179.822C179.822 55.1944 164.551 65.3138 160.892 75.4722C156.859 86.6708 160.491 94.4158 164.117 105.75C171.204 127.897 203.238 150.889 203.238 150.889L149.535 111.722L143.926 93.8056V77.6944Z" fill="#ED3A4F"/>
<path fill-rule="evenodd" clip-rule="evenodd" d="M197.521 149.301L151.993 115.936C144.334 108.93 140 99.1012 140 88.8268V87.3908C140 70.0852 152.724 55.3297 170.083 52.4826C181.572 50.601 193.263 54.2899 201.477 62.3608L204.5 65.3318L207.523 62.3608C215.737 54.2899 227.428 50.601 238.917 52.4826C256.276 55.3297 269 70.0852 269 87.3908V88.8268C269 99.1012 264.666 108.93 257.007 115.936L211.479 149.301C209.589 151.034 207.095 152 204.5 152C201.905 152 199.411 151.034 197.521 149.301ZM198.003 145.097L156.533 114.698C149.556 108.314 145.609 99.3588 145.609 89.9977V88.6894C145.609 72.9221 157.198 59.4782 173.011 56.8841C183.476 55.1698 194.124 61.3085 201.606 68.6621L204.36 71.3689L207.114 68.6621C214.595 61.3085 225.244 55.1698 235.709 56.8841C251.521 59.4782 263.111 72.9221 263.111 88.6894V89.9977C263.111 99.3588 259.164 108.314 252.187 114.698L210.717 145.097C208.996 146.676 206.724 147.556 204.36 147.556C201.996 147.556 199.724 146.676 198.003 145.097Z" fill="black"/>
<path d="M146.376 368C141.616 368 137.906 367.44 135.246 366.32C132.726 365.2 130.976 363.94 129.996 362.54C129.016 361.14 128.456 359.88 128.316 358.76C128.176 357.64 128.106 357.08 128.106 357.08C128.106 357.08 127.756 355.19 127.056 351.41C126.496 347.49 125.726 342.45 124.746 336.29C123.766 330.13 122.646 323.48 121.386 316.34C120.266 309.06 119.146 302.06 118.026 295.34C117.046 288.48 116.136 282.53 115.296 277.49C114.456 272.31 113.826 268.81 113.406 266.99C112.846 264.19 112.986 261.95 113.826 260.27C114.806 258.45 115.996 257.12 117.396 256.28C118.936 255.3 120.266 254.67 121.386 254.39C122.646 253.97 123.276 253.76 123.276 253.76C123.276 253.76 125.026 253.48 128.526 252.92C132.166 252.22 136.646 251.38 141.966 250.4C147.286 249.42 152.746 248.51 158.346 247.67C163.946 246.69 168.846 245.92 173.046 245.36C177.246 244.8 180.536 245.01 182.916 245.99C185.296 246.83 187.046 247.95 188.166 249.35C189.286 250.75 189.986 252.08 190.266 253.34C190.546 254.46 190.686 255.02 190.686 255.02C190.686 255.02 190.826 256.14 191.106 258.38C191.526 260.62 191.946 263.28 192.366 266.36C192.786 269.3 193.066 272.1 193.206 274.76C193.486 278.68 192.576 281.9 190.476 284.42C188.376 286.94 183.826 288.55 176.826 289.25C172.206 289.67 168.916 289.18 166.956 287.78C164.996 286.38 163.806 284.91 163.386 283.37C163.106 281.83 162.966 281.06 162.966 281.06L161.706 267.2L148.476 268.46L155.826 304.58C155.826 304.58 156.736 304.58 158.556 304.58C160.376 304.58 162.476 304.79 164.856 305.21C167.236 305.49 169.406 306.19 171.366 307.31C173.326 308.43 174.516 310.18 174.936 312.56C175.356 314.8 174.726 316.62 173.046 318.02C171.506 319.42 169.616 320.4 167.376 320.96C165.276 321.52 163.316 321.94 161.496 322.22C159.816 322.36 158.976 322.43 158.976 322.43C158.976 322.43 159.396 325.44 160.236 331.46C161.076 337.34 161.986 344.62 162.966 353.3C163.526 357.64 162.966 360.86 161.286 362.96C159.746 365.06 157.786 366.46 155.406 367.16C153.166 367.86 151.066 368.14 149.106 368C147.286 368 146.376 368 146.376 368ZM211.726 359.692C211.726 359.609 211.395 359.113 210.734 358.204C210.155 357.212 209.452 355.6 208.626 353.368C207.799 351.053 207.014 347.871 206.27 343.82C205.526 339.687 204.947 334.479 204.534 328.196C204.368 324.889 204.823 322.533 205.898 321.128C207.055 319.723 208.502 318.855 210.238 318.524C211.974 318.111 213.627 317.904 215.198 317.904C215.198 317.904 215.652 317.904 216.562 317.904C217.554 317.821 218.67 317.904 219.91 318.152C221.15 318.317 222.224 318.855 223.134 319.764C224.126 320.591 224.663 321.913 224.746 323.732C224.828 325.22 224.911 327.245 224.994 329.808C225.076 332.371 225.2 335.14 225.366 338.116C225.614 341.009 225.986 343.82 226.482 346.548C226.978 349.276 227.598 351.549 228.342 353.368C229.168 355.104 230.202 356.055 231.442 356.22C232.682 356.385 233.508 355.683 233.922 354.112C234.335 352.459 234.459 350.392 234.294 347.912C234.211 345.432 233.963 342.952 233.55 340.472C233.219 337.909 232.888 335.76 232.558 334.024C232.227 332.288 232.062 331.42 232.062 331.42C232.062 331.42 231.896 330.924 231.566 329.932C231.235 328.857 231.111 327.659 231.194 326.336C231.276 325.013 231.855 323.815 232.93 322.74C234.004 321.665 235.906 321.087 238.634 321.004C242.354 320.839 245.123 321.211 246.942 322.12C248.843 323.029 250.124 324.187 250.786 325.592C251.53 326.997 251.984 328.444 252.15 329.932C252.315 330.759 252.604 332.743 253.018 335.884C253.514 338.943 254.051 342.58 254.63 346.796C255.208 350.929 255.663 355.228 255.994 359.692C256.324 364.073 256.448 368.083 256.366 371.72C256.283 375.357 255.787 378.127 254.878 380.028C253.472 383.087 251.53 385.897 249.05 388.46C246.652 391.105 243.428 393.131 239.378 394.536C235.41 396.024 230.326 396.603 224.126 396.272C219.496 396.024 215.776 395.28 212.966 394.04C210.155 392.883 208.047 391.601 206.642 390.196C205.236 388.873 204.286 387.675 203.79 386.6C203.376 385.608 203.17 385.112 203.17 385.112C203.17 385.112 203.004 384.657 202.674 383.748C202.426 382.839 202.384 381.764 202.55 380.524C202.798 379.367 203.583 378.333 204.906 377.424C206.228 376.597 208.543 376.225 211.85 376.308C215.156 376.391 217.554 376.68 219.042 377.176C220.53 377.755 221.48 378.375 221.894 379.036C222.307 379.697 222.431 380.276 222.266 380.772C222.183 381.268 222.142 381.516 222.142 381.516C222.142 381.516 222.142 381.971 222.142 382.88C222.142 383.789 222.431 384.657 223.01 385.484C223.671 386.311 224.828 386.683 226.482 386.6C228.218 386.435 230.078 385.649 232.062 384.244C234.046 382.921 235.534 380.896 236.526 378.168C237.6 375.44 237.518 372.051 236.278 368C236.278 368 235.492 368.124 233.922 368.372C232.351 368.62 230.284 368.62 227.722 368.372C225.242 368.207 222.555 367.504 219.662 366.264C216.851 364.941 214.206 362.751 211.726 359.692ZM263.789 260.9C263.789 260.9 263.789 260.2 263.789 258.8C263.789 257.4 264.139 255.72 264.839 253.76C265.539 251.8 267.009 250.05 269.249 248.51C271.489 246.83 274.849 245.85 279.329 245.57C283.809 245.29 287.309 245.64 289.829 246.62C292.489 247.6 294.379 248.86 295.499 250.4C296.759 251.8 297.529 253.13 297.809 254.39C298.229 255.51 298.439 256.07 298.439 256.07L307.889 327.05L315.449 270.77C315.449 270.77 315.589 270.07 315.869 268.67C316.149 267.13 316.849 265.52 317.969 263.84C319.229 262.02 321.049 260.55 323.429 259.43C325.809 258.17 329.099 257.89 333.299 258.59C337.499 259.15 340.509 260.34 342.329 262.16C344.149 263.84 345.269 265.66 345.689 267.62C346.109 269.44 346.179 271.05 345.899 272.45C345.619 273.85 345.479 274.55 345.479 274.55C345.479 274.55 345.059 276.51 344.219 280.43C343.379 284.21 342.259 289.11 340.859 295.13C339.599 301.15 338.199 307.59 336.659 314.45C335.119 321.17 333.649 327.61 332.249 333.77C330.849 339.79 329.729 344.76 328.889 348.68C328.049 352.6 327.559 354.63 327.419 354.77C327.279 354.91 326.929 355.68 326.369 357.08C325.949 358.34 325.109 359.88 323.849 361.7C322.589 363.38 320.629 364.85 317.969 366.11C315.449 367.37 312.089 368 307.889 368C302.289 368 298.089 367.09 295.289 365.27C292.489 363.31 290.669 361.42 289.829 359.6C288.989 357.78 288.569 356.87 288.569 356.87L263.789 260.9Z" fill="white"/>
</svg>
